<?xml version="1.0" encoding="UTF-8"?>
<svg id="Capa_2" data-name="Capa 2" xmlns="http://www.w3.org/2000/svg" viewBox="0 0 194.67 194.67">
  <defs>
    <style>
      .cls-1 {
        fill: #193535;
      }

      .cls-2 {
        fill: #2ab8aa;
      }
    </style>
  </defs>
  <g id="Capa_1-2" data-name="Capa 1">
    <g>
      <circle class="cls-1" cx="97.33" cy="97.33" r="97.33"/>
      <path class="cls-2" d="M65.5,163.78l-9.85-13.11c-1.45-1.93-1.06-4.67.87-6.12l58.63-44.02c2.13-1.6,2.13-4.8,0-6.4l-58.63-44.01c-1.93-1.45-2.32-4.19-.87-6.12l9.85-13.11c1.45-1.93,4.19-2.32,6.11-.87l73.21,54.96c1.93,1.45,3.07,3.73,3.07,6.14v12.42c0,2.42-1.14,4.69-3.07,6.14l-73.21,54.96c-1.93,1.45-4.67,1.06-6.11-.87Z"/>
    </g>
  </g>
</svg>