<?xml version="1.0" encoding="UTF-8"?>
<svg id="Capa_2" data-name="Capa 2" xmlns="http://www.w3.org/2000/svg" viewBox="0 0 744.59 125.6">
  <defs>
    <style>
      .cls-1 {
        fill: #193e3e;
      }

      .cls-2 {
        fill: #2ab8aa;
      }
    </style>
  </defs>
  <g id="Capa_1-2" data-name="Capa 1">
    <g>
      <path class="cls-2" d="M9.6,122.29L.78,110.55c-1.3-1.73-.95-4.18.78-5.48l52.49-39.41c1.91-1.43,1.91-4.3,0-5.73L1.56,20.52c-1.73-1.3-2.08-3.75-.78-5.48L9.6,3.31c1.3-1.73,3.75-2.08,5.48-.78l65.55,49.21c1.73,1.3,2.75,3.34,2.75,5.5v11.12c0,2.16-1.02,4.2-2.75,5.5L15.07,123.07c-1.73,1.3-4.18.95-5.48-.78Z"/>
      <g>
        <path class="cls-1" d="M116.36,117.66c-5.96-5.29-8.94-12.88-8.94-22.76v-4.47c0-1.38,1.12-2.51,2.51-2.51h17.67c1.38,0,2.51,1.12,2.51,2.51v5.87c0,7.91,4.14,11.86,12.43,11.86,4.07,0,7.16-.96,9.27-2.88,2.11-1.92,3.16-5.03,3.16-9.33,0-5.12-1.45-9.62-4.36-13.52-2.91-3.89-8.29-8.57-16.14-14.04-9.89-6.98-16.79-13.28-20.72-18.93-3.92-5.64-5.89-12.01-5.89-19.1,0-9.65,3.05-17.12,9.16-22.41,6.11-5.29,14.97-7.94,26.6-7.94s20.17,2.65,26.06,7.94c5.89,5.29,8.83,12.88,8.83,22.76v2.55c0,1.38-1.12,2.51-2.51,2.51h-17.67c-1.38,0-2.51-1.12-2.51-2.51v-3.77c0-4.19-1.02-7.24-3.05-9.16-2.04-1.92-5.02-2.88-8.94-2.88-8,0-11.99,3.9-11.99,11.69,0,4.42,1.49,8.55,4.47,12.39,2.98,3.84,8.4,8.49,16.24,13.96,10.03,6.98,16.93,13.32,20.72,19.01,3.78,5.7,5.67,12.39,5.67,20.06,0,10-3.09,17.68-9.27,23.03-6.18,5.35-15.15,8.03-26.93,8.03s-20.43-2.64-26.38-7.94Z"/>
        <path class="cls-1" d="M200.31,117.57c-6.25-5.35-9.38-12.91-9.38-22.68V30.7c0-9.77,3.12-17.33,9.38-22.68,6.25-5.35,15.26-8.02,27.04-8.02s20.79,2.68,27.04,8.02c6.25,5.35,9.38,12.91,9.38,22.68v64.2c0,9.77-3.13,17.33-9.38,22.68-6.25,5.35-15.26,8.03-27.04,8.03s-20.79-2.67-27.04-8.03ZM239.77,96.12V29.48c0-8.02-4.14-12.04-12.43-12.04s-12.43,4.01-12.43,12.04v66.64c0,8.02,4.14,12.04,12.43,12.04s12.43-4.01,12.43-12.04Z"/>
        <path class="cls-1" d="M297.8,71.41l-27.38-66.2c-.68-1.65.53-3.46,2.32-3.46h20.01c1.05,0,1.99.66,2.35,1.65l15.75,43.18h.44l15.75-43.18c.36-.99,1.3-1.65,2.35-1.65h17.83c1.79,0,3,1.81,2.32,3.46l-27.38,66.2c-.13.3-.19.63-.19.96v48.98c0,1.38-1.12,2.51-2.51,2.51h-18.97c-1.38,0-2.51-1.12-2.51-2.51v-48.98c0-.33-.06-.65-.19-.96Z"/>
      </g>
      <g>
        <path class="cls-2" d="M368.58,1.74h19.05c1.23,0,2.27.89,2.47,2.1l15.35,92.62h.44l15.35-92.62c.2-1.21,1.25-2.1,2.47-2.1h16.87c1.57,0,2.75,1.43,2.46,2.97l-22.16,117.1c-.22,1.18-1.26,2.04-2.46,2.04h-27.68c-1.2,0-2.24-.86-2.46-2.04l-22.16-117.1c-.29-1.54.89-2.97,2.46-2.97Z"/>
        <path class="cls-2" d="M457.68,1.74h18.97c1.38,0,2.51,1.12,2.51,2.51v117.1c0,1.38-1.12,2.51-2.51,2.51h-18.97c-1.38,0-2.51-1.12-2.51-2.51V4.25c0-1.38,1.12-2.51,2.51-2.51Z"/>
        <path class="cls-2" d="M504.56,117.75c-6.03-5.23-9.05-12.62-9.05-22.15V30c0-9.53,3.01-16.92,9.05-22.16,6.03-5.23,14.79-7.85,26.28-7.85s20.24,2.62,26.27,7.85c6.03,5.23,9.05,12.62,9.05,22.16v10.4c0,1.38-1.12,2.51-2.51,2.51h-17.67c-1.38,0-2.51-1.12-2.51-2.51v-11.62c0-7.56-4-11.34-11.99-11.34s-11.99,3.78-11.99,11.34v68.21c0,7.44,4,11.16,11.99,11.16s11.99-3.72,11.99-11.16v-16.16c0-1.38,1.12-2.51,2.51-2.51h17.67c1.38,0,2.51,1.12,2.51,2.51v14.76c0,9.54-3.02,16.92-9.05,22.15-6.03,5.23-14.79,7.85-26.27,7.85s-20.25-2.62-26.28-7.85Z"/>
        <path class="cls-2" d="M583.06,1.74h18.97c1.38,0,2.51,1.12,2.51,2.51v39.82c0,2.55,3.36,3.47,4.66,1.28l25.14-42.38c.45-.76,1.27-1.23,2.16-1.23h17.99c1.98,0,3.18,2.18,2.11,3.85l-25.44,39.92c-.42.66-.51,1.49-.23,2.23l27.29,72.72c.61,1.64-.6,3.39-2.35,3.39h-19.72c-1.05,0-1.98-.65-2.35-1.63l-17.88-48c-.73-1.95-3.38-2.22-4.48-.44l-6.53,10.56c-.24.4-.37.85-.37,1.32v35.68c0,1.38-1.12,2.51-2.51,2.51h-18.97c-1.38,0-2.51-1.12-2.51-2.51V4.25c0-1.38,1.12-2.51,2.51-2.51Z"/>
        <path class="cls-2" d="M692.66,71.41l-27.38-66.2c-.68-1.65.53-3.46,2.32-3.46h20.01c1.05,0,1.99.66,2.35,1.65l15.75,43.18h.44l15.75-43.18c.36-.99,1.3-1.65,2.35-1.65h17.83c1.79,0,3,1.81,2.32,3.46l-27.38,66.2c-.13.3-.19.63-.19.96v48.98c0,1.38-1.12,2.51-2.51,2.51h-18.97c-1.38,0-2.51-1.12-2.51-2.51v-48.98c0-.33-.06-.65-.19-.96Z"/>
      </g>
    </g>
  </g>
</svg>